<svg xmlns="http://www.w3.org/2000/svg" xmlns:xlink="http://www.w3.org/1999/xlink" width="500" zoomAndPan="magnify" viewBox="0 0 375 374.999991" height="500" preserveAspectRatio="xMidYMid meet" version="1.0"><defs><g/></defs><g fill="#156dc4" fill-opacity="1"><g transform="translate(38.049533, 180.749988)"><g><path d="M 113.589844 -69.84375 L 113.589844 -104.636719 L 53.726562 -104.636719 L 53.726562 -139.171875 L 116.148438 -139.171875 L 116.148438 -173.964844 L 15.351562 -173.964844 L 15.351562 0 L 53.726562 0 L 53.726562 -69.84375 Z M 113.589844 -69.84375 "/></g></g></g><g fill="#156dc4" fill-opacity="1"><g transform="translate(148.824535, 180.749988)"><g><path d="M 149.660156 -87.238281 C 149.660156 -60.375 125.359375 -35.816406 98.496094 -35.816406 C 71.632812 -35.816406 47.328125 -60.375 47.328125 -87.238281 C 47.328125 -114.101562 71.632812 -138.40625 98.496094 -138.40625 C 125.359375 -138.40625 149.660156 -114.101562 149.660156 -87.238281 Z M 188.035156 -86.984375 C 188.035156 -135.078125 146.59375 -176.523438 98.496094 -176.523438 C 50.398438 -176.523438 8.953125 -135.078125 8.953125 -86.984375 C 8.953125 -38.886719 50.398438 2.558594 98.496094 2.558594 C 146.59375 2.558594 188.035156 -38.886719 188.035156 -86.984375 Z M 188.035156 -86.984375 "/></g></g></g><g fill="#156dc4" fill-opacity="1"><g transform="translate(0.783911, 367.499976)"><g><path d="M 232.296875 0 L 198.527344 -173.964844 L 152.988281 -173.964844 L 116.914062 -51.933594 L 80.585938 -173.964844 L 35.050781 -173.964844 L 1.277344 0 L 43.492188 0 L 63.957031 -119.984375 L 97.984375 0 L 135.589844 0 L 169.617188 -119.984375 L 190.082031 0 Z M 232.296875 0 "/></g></g></g><g fill="#156dc4" fill-opacity="1"><g transform="translate(216.194179, 367.499976)"><g><path d="M 116.914062 -173.964844 L 116.914062 -73.425781 C 116.914062 -49.375 109.753906 -35.816406 83.402344 -35.816406 C 57.304688 -35.816406 49.886719 -49.375 49.886719 -73.425781 L 49.886719 -173.964844 L 11.511719 -173.964844 L 11.511719 -67.796875 C 11.511719 -21.488281 38.117188 2.558594 83.402344 2.558594 C 128.683594 2.558594 155.289062 -21.488281 155.289062 -67.796875 L 155.289062 -173.964844 Z M 116.914062 -173.964844 "/></g></g></g></svg>